<?xml version="1.0" standalone="no"?>
<!DOCTYPE svg PUBLIC "-//W3C//DTD SVG 20010904//EN"
 "http://www.w3.org/TR/2001/REC-SVG-20010904/DTD/svg10.dtd">
<svg version="1.0" xmlns="http://www.w3.org/2000/svg"
 width="2133.000000pt" height="2133.000000pt" viewBox="0 0 2133.000000 2133.000000"
 preserveAspectRatio="xMidYMid meet">
<metadata>
Created by potrace 1.11, written by Peter Selinger 2001-2013
</metadata>
<g transform="translate(0.000000,2133.000000) scale(0.100000,-0.100000)"
fill="#000000" stroke="none">
<path d="M9869 20885 c-2 -1 -67 -6 -144 -9 -77 -4 -158 -9 -180 -11 -22 -2
-76 -7 -120 -10 -117 -8 -155 -12 -335 -31 -71 -7 -184 -21 -235 -29 -16 -2
-52 -7 -80 -11 -27 -3 -59 -8 -70 -10 -11 -2 -38 -7 -60 -9 -22 -3 -67 -10
-100 -16 -33 -5 -69 -12 -80 -13 -39 -7 -224 -42 -265 -51 -14 -3 -36 -8 -50
-11 -207 -43 -170 -35 -380 -88 -711 -181 -1368 -439 -1984 -778 -340 -188
-563 -335 -955 -633 -38 -28 -252 -207 -277 -230 -12 -11 -57 -51 -100 -90
-146 -131 -392 -381 -529 -540 -145 -167 -173 -201 -283 -344 -548 -712 -961
-1568 -1161 -2411 -29 -122 -66 -296 -75 -355 -3 -16 -12 -70 -20 -120 -19
-112 -23 -145 -31 -220 -4 -33 -8 -67 -10 -75 -3 -8 -7 -49 -11 -90 -3 -41 -8
-91 -10 -110 -25 -232 -26 -1041 0 -1176 2 -10 7 -57 11 -104 4 -47 9 -88 11
-92 2 -3 6 -26 8 -50 10 -96 46 -288 77 -413 11 -44 22 -89 24 -99 21 -97 108
-360 170 -511 43 -105 125 -272 181 -368 21 -38 44 -76 49 -86 13 -22 97 -153
107 -166 5 -5 47 -62 94 -125 118 -157 163 -209 315 -366 111 -115 261 -255
374 -349 244 -204 687 -509 983 -677 20 -11 89 -50 152 -86 126 -71 605 -315
740 -377 47 -21 130 -58 185 -83 55 -24 123 -54 150 -66 28 -13 147 -62 265
-111 118 -48 229 -93 245 -100 45 -20 352 -137 510 -195 77 -28 147 -54 155
-57 8 -3 20 -7 25 -9 6 -1 73 -26 150 -54 77 -28 147 -53 155 -56 8 -2 159
-52 335 -112 395 -134 1175 -381 1330 -422 17 -4 109 -31 205 -60 96 -28 204
-60 240 -70 156 -43 705 -207 735 -219 11 -5 103 -36 205 -69 176 -56 562
-192 605 -212 11 -5 54 -23 95 -39 229 -89 535 -231 663 -307 128 -77 265
-181 357 -274 220 -219 311 -442 297 -722 -6 -130 -25 -212 -73 -317 -90 -196
-258 -337 -519 -434 -80 -30 -238 -72 -305 -81 -25 -3 -72 -10 -104 -16 -108
-18 -258 -25 -506 -25 -225 0 -507 10 -555 19 -11 2 -55 7 -98 11 -43 3 -88 8
-100 10 -12 2 -44 6 -72 10 -103 13 -254 36 -320 49 -11 2 -40 7 -65 11 -66
11 -76 13 -185 35 -55 12 -147 33 -205 47 -58 13 -112 26 -120 28 -152 34
-507 137 -756 220 -203 68 -587 208 -659 240 -16 7 -66 28 -110 45 -104 41
-254 105 -333 141 -35 16 -65 29 -67 29 -2 0 -36 15 -77 34 -40 19 -138 64
-218 101 -252 116 -703 344 -903 457 -38 21 -71 38 -73 38 -3 0 -39 20 -82 44
-42 23 -97 54 -122 68 -352 196 -929 549 -1323 811 l-185 123 -30 -51 c-17
-27 -45 -77 -62 -110 -18 -33 -39 -67 -46 -76 -8 -8 -14 -19 -14 -23 0 -4 -36
-69 -79 -144 -93 -161 -585 -1025 -625 -1097 -16 -27 -54 -95 -86 -150 -32
-55 -214 -374 -405 -710 -467 -819 -470 -825 -494 -865 -11 -19 -30 -53 -42
-75 -12 -22 -90 -159 -174 -305 -84 -146 -163 -285 -177 -310 -14 -25 -62
-109 -107 -188 -44 -78 -81 -149 -81 -156 0 -8 9 -21 19 -28 11 -8 52 -44 93
-82 361 -334 859 -718 1343 -1033 105 -69 504 -312 535 -326 8 -4 29 -15 45
-25 32 -20 119 -68 250 -139 89 -48 642 -323 650 -323 3 0 40 -16 82 -36 43
-20 116 -52 162 -71 46 -19 91 -39 100 -44 9 -5 52 -23 96 -40 44 -17 91 -36
105 -42 14 -6 27 -11 30 -12 3 -1 16 -6 30 -12 168 -71 610 -229 950 -338 439
-141 1024 -297 1465 -391 157 -33 345 -70 425 -84 30 -6 65 -12 76 -14 12 -2
37 -7 55 -10 19 -3 45 -8 59 -11 59 -12 77 -15 115 -20 23 -3 52 -8 65 -10 14
-3 45 -8 70 -11 25 -3 54 -8 65 -10 11 -2 40 -6 65 -9 25 -3 56 -8 68 -11 13
-3 43 -7 65 -10 23 -3 71 -9 107 -15 36 -5 85 -11 110 -14 25 -3 59 -7 75 -9
17 -2 62 -7 100 -11 39 -3 81 -8 95 -10 14 -2 57 -6 95 -10 39 -3 88 -8 110
-10 91 -10 329 -28 510 -40 33 -2 123 -6 200 -10 77 -3 176 -8 220 -11 110 -7
855 -7 1045 0 171 6 323 14 415 21 33 2 101 7 150 10 50 3 106 8 125 10 19 3
69 7 110 10 41 3 91 7 110 10 19 2 60 7 90 10 30 3 89 10 130 15 41 5 98 12
125 15 807 98 1667 314 2399 604 257 102 674 298 846 397 25 14 81 46 125 71
328 186 706 453 995 702 153 132 407 380 541 526 399 439 770 1016 998 1555
29 69 57 134 62 145 106 244 257 773 314 1100 33 189 43 252 50 309 4 32 8 68
10 80 2 11 9 71 15 131 6 61 13 124 15 141 27 234 27 1160 0 1304 -1 8 -6 49
-10 90 -3 41 -8 86 -10 100 -2 14 -11 75 -20 135 -62 427 -175 844 -327 1200
-237 556 -589 1027 -1123 1506 -77 68 -251 207 -385 306 -714 528 -1687 1018
-2905 1463 -831 303 -1768 590 -2910 888 -1108 290 -1787 526 -2180 757 -286
168 -476 382 -554 625 -36 113 -44 167 -44 300 2 452 240 740 737 895 103 32
257 66 352 79 202 26 572 27 779 2 17 -2 64 -7 105 -11 41 -4 82 -9 91 -10 9
-2 40 -6 70 -10 314 -38 754 -143 1137 -271 143 -48 362 -128 397 -144 11 -5
43 -18 70 -29 215 -82 760 -339 1071 -504 577 -307 1151 -646 1828 -1082 110
-71 201 -124 203 -119 2 5 60 99 130 209 296 468 496 785 748 1185 147 234
288 457 314 496 25 40 70 109 98 155 29 46 154 244 277 439 123 195 253 400
287 455 34 55 81 129 104 165 64 99 537 848 560 886 11 18 53 86 94 150 62 97
71 118 60 128 -44 42 -308 261 -454 377 -528 422 -1043 774 -1577 1080 -237
135 -737 384 -953 474 -88 36 -169 70 -180 75 -37 16 -199 77 -300 113 -530
189 -1309 381 -2030 501 -214 36 -446 70 -545 81 -30 3 -62 8 -70 10 -8 2 -45
7 -82 10 -37 3 -75 7 -85 9 -10 2 -54 7 -98 11 -44 4 -87 8 -95 10 -8 2 -53 6
-100 9 -47 4 -101 9 -120 11 -19 2 -80 7 -135 11 -55 3 -107 8 -115 9 -8 2
-78 6 -155 10 -77 4 -165 9 -195 12 -64 5 -1226 14 -1231 8z"/>
</g>
</svg>
