<?xml version="1.0" encoding="utf-8"?>
<!-- Generator: Adobe Illustrator 16.0.4, SVG Export Plug-In . SVG Version: 6.00 Build 0)  -->
<!DOCTYPE svg PUBLIC "-//W3C//DTD SVG 1.1//EN" "http://www.w3.org/Graphics/SVG/1.1/DTD/svg11.dtd">
<svg version="1.1" id="Layer_1" xmlns="http://www.w3.org/2000/svg" xmlns:xlink="http://www.w3.org/1999/xlink" x="0px" y="0px"
	 width="36px" height="36px" viewBox="278.794 271.491 36 36" enable-background="new 278.794 271.491 36 36" xml:space="preserve">
<path fill="#828282" d="M296.761,271.967c-9.921,0-17.967,8.043-17.967,17.97c0,7.938,5.147,14.672,12.288,17.048
	c0.899,0.164,1.227-0.389,1.227-0.866c0-0.426-0.016-1.555-0.022-3.057c-5,1.087-6.053-2.407-6.053-2.407
	c-0.817-2.075-1.996-2.628-1.996-2.628c-1.632-1.114,0.123-1.093,0.123-1.093c1.804,0.127,2.753,1.853,2.753,1.853
	c1.602,2.746,4.204,1.951,5.228,1.493c0.165-1.162,0.628-1.952,1.142-2.4c-3.99-0.457-8.183-1.996-8.183-8.882
	c0-1.961,0.7-3.566,1.851-4.821c-0.186-0.456-0.804-2.283,0.176-4.756c0,0,1.51-0.484,4.941,1.843
	c1.433-0.401,2.968-0.6,4.497-0.607c1.526,0.007,3.063,0.206,4.499,0.604c3.431-2.325,4.936-1.843,4.936-1.843
	c0.979,2.472,0.363,4.3,0.178,4.755c1.151,1.255,1.848,2.86,1.848,4.821c0,6.901-4.199,8.421-8.202,8.865
	c0.646,0.556,1.22,1.651,1.22,3.327c0,2.4-0.023,4.339-0.023,4.929c0,0.482,0.324,1.041,1.236,0.865
	c7.134-2.381,12.276-9.111,12.276-17.046C314.73,280.013,306.685,271.967,296.761,271.967z"/>
</svg>
