<?xml version="1.0" encoding="utf-8"?>
<!-- Generator: Adobe Illustrator 16.0.4, SVG Export Plug-In . SVG Version: 6.00 Build 0)  -->
<!DOCTYPE svg PUBLIC "-//W3C//DTD SVG 1.1//EN" "http://www.w3.org/Graphics/SVG/1.1/DTD/svg11.dtd">
<svg version="1.1"
	 id="svg2989" xmlns:dc="http://purl.org/dc/elements/1.1/" xmlns:rdf="http://www.w3.org/1999/02/22-rdf-syntax-ns#" xmlns:cc="http://creativecommons.org/ns#" xmlns:sodipodi="http://sodipodi.sourceforge.net/DTD/sodipodi-0.dtd" xmlns:inkscape="http://www.inkscape.org/namespaces/inkscape" xmlns:svg="http://www.w3.org/2000/svg" sodipodi:docname="rss_font_awesome.svg" inkscape:version="0.48.3.1 r9886"
	 xmlns="http://www.w3.org/2000/svg" xmlns:xlink="http://www.w3.org/1999/xlink" x="0px" y="0px" width="36px" height="36px"
	 viewBox="286.968 286.929 36 36" enable-background="new 286.968 286.929 36 36" xml:space="preserve">
<sodipodi:namedview  pagecolor="#ffffff" guidetolerance="10" inkscape:zoom="0.13169643" inkscape:cy="896" id="namedview2995" inkscape:cx="896" borderopacity="1" gridtolerance="10" objecttolerance="10" showgrid="false" bordercolor="#666666" inkscape:current-layer="svg2989" inkscape:window-width="640" inkscape:window-height="480" inkscape:window-x="0" inkscape:pageopacity="0" inkscape:pageshadow="2" inkscape:window-maximized="0" inkscape:window-y="25">
	</sodipodi:namedview>
<g id="g2991" transform="matrix(1,0,0,-1,212.61017,1346.1695)">
	<path id="path2993" inkscape:connector-curvature="0" fill="#828282" d="M84.182,1028.13c0-1.365-0.478-2.525-1.433-3.479
		c-0.956-0.956-2.115-1.434-3.48-1.434c-1.364,0-2.524,0.478-3.479,1.434c-0.955,0.954-1.433,2.114-1.433,3.479
		c0,1.363,0.478,2.523,1.433,3.479c0.956,0.954,2.115,1.433,3.479,1.433c1.365,0,2.524-0.479,3.48-1.433
		C83.705,1030.653,84.182,1029.493,84.182,1028.13z M97.281,1024.982c0.035-0.478-0.11-0.887-0.435-1.229
		c-0.308-0.357-0.708-0.537-1.202-0.537h-3.454c-0.427,0-0.793,0.142-1.101,0.423s-0.478,0.635-0.512,1.062
		c-0.375,3.905-1.948,7.245-4.72,10.017c-2.772,2.771-6.111,4.345-10.017,4.721c-0.427,0.033-0.781,0.204-1.062,0.512
		c-0.281,0.307-0.422,0.674-0.422,1.1v3.454c0,0.494,0.179,0.896,0.538,1.202c0.29,0.29,0.656,0.435,1.1,0.435h0.128
		c2.729-0.221,5.339-0.908,7.829-2.059c2.49-1.151,4.699-2.7,6.626-4.644c1.945-1.928,3.493-4.137,4.644-6.627
		C96.374,1030.321,97.061,1027.712,97.281,1024.982z M110.382,1024.931c0.033-0.461-0.12-0.861-0.46-1.202
		c-0.308-0.342-0.7-0.513-1.178-0.513h-3.658c-0.444,0-0.823,0.149-1.139,0.448s-0.482,0.661-0.5,1.088
		c-0.204,3.667-1.065,7.15-2.583,10.45c-1.519,3.302-3.493,6.167-5.924,8.597c-2.43,2.431-5.296,4.405-8.596,5.923
		s-6.784,2.388-10.452,2.609c-0.426,0.017-0.789,0.184-1.087,0.499c-0.298,0.315-0.448,0.687-0.448,1.113v3.659
		c0,0.478,0.17,0.87,0.512,1.177c0.307,0.307,0.682,0.46,1.125,0.46h0.077c4.469-0.222,8.746-1.245,12.831-3.07
		s7.714-4.332,10.887-7.522c3.19-3.173,5.697-6.802,7.522-10.886C109.136,1033.677,110.16,1029.4,110.382,1024.931z"/>
</g>
</svg>
