<?xml version="1.0" encoding="utf-8"?>
<!-- Generator: Adobe Illustrator 16.0.4, SVG Export Plug-In . SVG Version: 6.00 Build 0)  -->
<!DOCTYPE svg PUBLIC "-//W3C//DTD SVG 1.1//EN" "http://www.w3.org/Graphics/SVG/1.1/DTD/svg11.dtd">
<svg version="1.1"
	 id="svg2" xmlns:dc="http://purl.org/dc/elements/1.1/" xmlns:rdf="http://www.w3.org/1999/02/22-rdf-syntax-ns#" xmlns:cc="http://creativecommons.org/ns#" xmlns:sodipodi="http://sodipodi.sourceforge.net/DTD/sodipodi-0.dtd" xmlns:inkscape="http://www.inkscape.org/namespaces/inkscape" xmlns:svg="http://www.w3.org/2000/svg" sodipodi:docname="envelope_alt_font_awesome.svg" inkscape:version="0.48.3.1 r9886"
	 xmlns="http://www.w3.org/2000/svg" xmlns:xlink="http://www.w3.org/1999/xlink" x="0px" y="0px" width="36px" height="36px"
	 viewBox="278.406 214.89 36 36" enable-background="new 278.406 214.89 36 36" xml:space="preserve">
<sodipodi:namedview  pagecolor="#ffffff" guidetolerance="10" inkscape:zoom="0.13169643" inkscape:cy="896" id="namedview8" inkscape:cx="896" borderopacity="1" gridtolerance="10" objecttolerance="10" showgrid="false" bordercolor="#666666" inkscape:current-layer="svg2" inkscape:window-width="640" inkscape:window-height="480" inkscape:window-x="0" inkscape:pageopacity="0" inkscape:pageshadow="2" inkscape:window-maximized="0" inkscape:window-y="25">
	</sodipodi:namedview>
<g id="g4" transform="matrix(1,0,0,-1,30.372881,1252.3051)">
	<path id="path6" inkscape:connector-curvature="0" fill="#828282" d="M283.966,1024.428v-15.921c0-0.883-0.314-1.638-0.942-2.266
		s-1.384-0.942-2.267-0.942h-29.516c-0.882,0-1.637,0.314-2.266,0.942c-0.628,0.628-0.942,1.383-0.942,2.266v15.921
		c0.588-0.655,1.263-1.236,2.025-1.745c4.84-3.288,8.162-5.594,9.966-6.917c0.763-0.562,1.38-0.999,1.855-1.313
		c0.475-0.313,1.106-0.636,1.895-0.962c0.789-0.329,1.524-0.492,2.206-0.492H266h0.02c0.682,0,1.416,0.163,2.205,0.492
		c0.789,0.326,1.421,0.648,1.896,0.962c0.475,0.314,1.093,0.752,1.854,1.313c2.273,1.644,5.602,3.95,9.986,6.917
		C282.723,1023.204,283.391,1023.786,283.966,1024.428z M283.966,1030.323c0-1.056-0.328-2.065-0.982-3.028
		c-0.655-0.962-1.471-1.785-2.447-2.466c-5.025-3.489-8.153-5.662-9.384-6.518c-0.134-0.094-0.417-0.297-0.852-0.611
		c-0.435-0.313-0.796-0.568-1.083-0.762s-0.635-0.411-1.043-0.651c-0.407-0.241-0.791-0.421-1.152-0.541
		c-0.36-0.121-0.695-0.181-1.003-0.181H266h-0.02c-0.307,0-0.642,0.06-1.003,0.181c-0.36,0.12-0.745,0.3-1.152,0.541
		c-0.408,0.24-0.756,0.458-1.043,0.651s-0.648,0.448-1.083,0.762c-0.434,0.314-0.718,0.518-0.852,0.611
		c-1.216,0.855-2.968,2.076-5.253,3.66c-2.286,1.584-3.656,2.537-4.11,2.857c-0.829,0.561-1.611,1.333-2.346,2.316
		c-0.735,0.982-1.103,1.895-1.103,2.737c0,1.043,0.277,1.912,0.832,2.607c0.555,0.695,1.347,1.042,2.376,1.042h29.515
		c0.87,0,1.621-0.314,2.257-0.942C283.649,1031.96,283.966,1031.205,283.966,1030.323z"/>
</g>
</svg>
