<?xml version="1.0" encoding="utf-8"?>
<!-- Generator: Adobe Illustrator 16.0.4, SVG Export Plug-In . SVG Version: 6.00 Build 0)  -->
<!DOCTYPE svg PUBLIC "-//W3C//DTD SVG 1.1//EN" "http://www.w3.org/Graphics/SVG/1.1/DTD/svg11.dtd">
<svg version="1.1" id="Layer_1" xmlns="http://www.w3.org/2000/svg" xmlns:xlink="http://www.w3.org/1999/xlink" x="0px" y="0px"
	 width="36px" height="36px" viewBox="288 229.726 36 36" enable-background="new 288 229.726 36 36" xml:space="preserve">
<path fill="#828282" d="M323.842,237.185c-1.318,0.584-2.736,0.98-4.224,1.158c1.519-0.911,2.686-2.35,3.233-4.068
	c-1.421,0.843-2.995,1.455-4.668,1.783c-1.341-1.43-3.252-2.323-5.368-2.323c-4.062,0-7.354,3.292-7.354,7.354
	c0,0.576,0.065,1.138,0.191,1.675c-6.112-0.303-11.533-3.231-15.16-7.68c-0.632,1.086-0.994,2.348-0.994,3.695
	c0,2.55,1.297,4.801,3.272,6.122c-1.208-0.039-2.341-0.369-3.333-0.92c0,0.032,0,0.061,0,0.092c0,3.562,2.534,6.536,5.899,7.21
	c-0.616,0.169-1.266,0.259-1.937,0.259c-0.475,0-0.936-0.048-1.383-0.133c0.936,2.922,3.652,5.049,6.87,5.107
	c-2.516,1.972-5.687,3.148-9.132,3.148c-0.594,0-1.179-0.034-1.754-0.104c3.254,2.087,7.12,3.304,11.274,3.304
	c13.527,0,20.924-11.206,20.924-20.924c0-0.319-0.007-0.636-0.02-0.951C321.608,239.955,322.856,238.66,323.842,237.185z"/>
</svg>
